<svg xmlns="http://www.w3.org/2000/svg" viewBox="0 0 640 420" role="img" aria-label="Basketball player vector">
  <rect width="640" height="420" fill="#ffffff"/>
  <circle cx="500" cy="78" r="42" fill="#0a0a0b"/>
  <path stroke="#ffffff" stroke-width="8" fill="none" d="M470 49c24 21 43 46 57 75M461 82h80M497 37c-7 25-7 55 0 86"/>
  <circle cx="334" cy="104" r="27" fill="#0a0a0b"/>
  <path fill="#0a0a0b" d="M321 141c-37 20-61 57-70 112l-71 35 18 38 83-34c13-5 22-17 25-31l13-57 49 39-6 96h45l16-105c2-13-3-26-14-34l-64-51c-7-6-16-8-24-4z"/>
  <path fill="#0a0a0b" d="m363 155 67-40 26 31-72 58z"/>
  <path fill="#0a0a0b" d="m257 249-88-17-53-75-34 24 60 91c7 10 18 17 30 19l77 13z"/>
  <path fill="#9d00ff" d="M112 350h416v12H112z"/>
</svg>
