<svg xmlns="http://www.w3.org/2000/svg" viewBox="0 0 640 420" role="img" aria-label="Running athlete vector">
  <rect width="640" height="420" fill="#ffffff"/>
  <circle cx="356" cy="82" r="28" fill="#0a0a0b"/>
  <path fill="#0a0a0b" d="M329 125c-42 10-77 35-105 76l34 25c18-25 39-42 64-51l46 45-61 41c-9 6-16 15-20 25l-24 62h45l21-45 76-42c14-8 17-27 6-39l-43-47 62 18 44 69 37-22-53-88c-6-10-16-17-27-20l-77-20c-8-2-17-2-25 0z"/>
  <path fill="#0a0a0b" d="m397 254 57 31 84-20 10 39-94 32c-11 4-24 2-34-4l-58-37z"/>
  <path fill="#0a0a0b" d="M225 202 134 193l-40-54-32 25 50 76c7 10 18 16 30 17l76 4z"/>
  <path stroke="#9d00ff" stroke-width="13" stroke-linecap="round" fill="none" d="M86 354h420"/>
</svg>
